<?xml version="1.0" encoding="UTF-8" standalone="no"?>
<!-- Created with Inkscape (http://www.inkscape.org/) -->

<svg
   xmlns:dc="http://purl.org/dc/elements/1.1/"
   xmlns:cc="http://creativecommons.org/ns#"
   xmlns:rdf="http://www.w3.org/1999/02/22-rdf-syntax-ns#"
   xmlns:svg="http://www.w3.org/2000/svg"
   xmlns="http://www.w3.org/2000/svg"
   xmlns:sodipodi="http://sodipodi.sourceforge.net/DTD/sodipodi-0.dtd"
   xmlns:inkscape="http://www.inkscape.org/namespaces/inkscape"
   width="744.09448819"
   height="1052.3622047"
   id="svg2"
   version="1.1"
   inkscape:version="0.48.4 r9939"
   sodipodi:docname="amandaAir.svg">
  <defs
     id="defs4">
    <inkscape:path-effect
       effect="spiro"
       id="path-effect3066"
       is_visible="true" />
  </defs>
  <sodipodi:namedview
     id="base"
     pagecolor="#ffffff"
     bordercolor="#666666"
     borderopacity="1.0"
     inkscape:pageopacity="0.0"
     inkscape:pageshadow="2"
     inkscape:zoom="0.98318226"
     inkscape:cx="528.14733"
     inkscape:cy="661.59767"
     inkscape:document-units="px"
     inkscape:current-layer="layer1"
     showgrid="false"
     inkscape:window-width="1855"
     inkscape:window-height="1176"
     inkscape:window-x="65"
     inkscape:window-y="24"
     inkscape:window-maximized="1" />
  <metadata
     id="metadata7">
    <rdf:RDF>
      <cc:Work
         rdf:about="">
        <dc:format>image/svg+xml</dc:format>
        <dc:type
           rdf:resource="http://purl.org/dc/dcmitype/StillImage" />
        <dc:title></dc:title>
      </cc:Work>
    </rdf:RDF>
  </metadata>
  <g
     inkscape:label="Layer 1"
     inkscape:groupmode="layer"
     id="layer1">
    <path
       style="color:#000000;fill:#000050;fill-opacity:1;fill-rule:nonzero;stroke:#000050;stroke-width:0.59537482;stroke-linecap:butt;stroke-linejoin:miter;stroke-miterlimit:4;stroke-opacity:1;stroke-dasharray:none;stroke-dashoffset:0;marker:none;visibility:visible;display:inline;overflow:visible;enable-background:accumulate"
       id="path3025"
       d="m 150.03919,334.7168 c -0.48328,-0.024 -0.96631,-0.077 -1.45024,-0.0549 -0.76918,-0.0133 -1.53658,-0.009 -2.30407,0.0406 -1.03319,0.10409 -2.06691,0.20128 -3.10026,0.30455 -1.24271,0.16674 -2.4829,0.35263 -3.71377,0.57647 -1.45563,0.2559 -2.89201,0.5847 -4.32521,0.92176 -1.61573,0.38526 -3.15832,0.93885 -4.68848,1.52335 -1.79554,0.7264 -3.51713,1.58404 -5.22364,2.45533 37.36379,-18.08138 23.96079,-12.35317 16.07202,-7.9215 -1.86374,1.04917 -3.66881,2.17442 -5.4349,3.34331 -1.88865,1.25693 -3.67775,2.61899 -5.4347,4.01078 -1.90798,1.50356 -3.6861,3.12329 -5.42801,4.76985 -1.87045,1.7713 -3.5968,3.65098 -5.28052,5.55659 -1.76622,2.0045 -3.40774,4.08771 -5.01152,6.19159 -1.62639,2.15429 -3.14074,4.36958 -4.61753,6.6029 -1.48957,2.25863 -2.85913,4.57401 -4.19519,6.90315 -1.35725,2.38297 -2.60878,4.80919 -3.80995,7.25398 -1.25528,2.55784 -2.386506,5.15895 -3.458245,7.77834 -1.10847,2.7338 -2.06961,5.50978 -2.987244,8.29558 -0.955948,2.90413 -1.691188,5.85662 -2.356829,8.81957 -0.665798,3.03734 -1.16411,6.09914 -1.597274,9.16719 -0.425185,3.07129 -0.703339,6.15539 -0.945826,9.24094 -0.248006,3.00783 -0.320648,6.02252 -0.332364,9.03703 0.0083,2.91887 0.139482,5.83599 0.360819,8.74814 0.22236,2.79388 0.675714,5.56756 1.212175,8.32732 0.531277,2.72636 1.262221,5.41839 2.105679,8.08341 0.856319,2.63876 1.917064,5.22119 3.052007,7.77778 1.11914,2.49221 2.400053,4.92514 3.724852,7.33889 1.27805,2.30594 2.68237,4.55521 4.15875,6.76914 1.42324,2.13477 2.99186,4.1916 4.61173,6.21657 1.57997,1.95706 3.25762,3.85306 4.99279,5.70779 1.72651,1.85309 3.60724,3.58967 5.55934,5.26319 1.99953,1.70087 4.1412,3.26677 6.32556,4.78387 2.23627,1.54319 4.57526,2.96747 6.94528,4.35001 2.40208,1.39131 4.86795,2.69571 7.37141,3.94404 2.47897,1.21363 5.02908,2.3117 7.58993,3.38763 2.49343,1.05146 5.04899,1.9829 7.61784,2.88455 2.46447,0.85717 4.98666,1.57689 7.53605,2.21603 2.43763,0.6236 4.9371,1.01493 7.44694,1.33783 2.42181,0.29986 4.8604,0.47922 7.29966,0.62934 2.33137,0.14171 4.66635,0.1983 7.00292,0.19281 2.21834,0.0148 4.43346,-0.1206 6.64132,-0.29445 2.10753,-0.17521 4.20324,-0.44127 6.28068,-0.79387 2.06302,-0.31794 4.05014,-0.88791 6.02067,-1.49097 2.05945,-0.64112 4.03996,-1.44941 5.99008,-2.30583 1.01777,-0.43509 2.00313,-0.92594 2.9835,-1.42083 0.33113,-0.16716 1.32017,-0.67504 0.98829,-0.50901 -18.09144,9.05087 -27.48893,13.80411 -19.51787,9.77368 2.02368,-1.03027 3.96542,-2.17499 5.8932,-3.33384 1.92402,-1.15057 3.77377,-2.38956 5.58899,-3.66529 1.80263,-1.28694 3.52838,-2.65096 5.22207,-4.04407 1.71668,-1.43537 3.35013,-2.94297 4.95071,-4.47538 1.62587,-1.56371 3.17482,-3.18576 4.70758,-4.81828 1.52042,-1.62344 2.98108,-3.2879 4.40425,-4.97622 1.42634,-1.69751 2.80209,-3.42604 4.16803,-5.16037 1.34224,-1.7119 2.65528,-3.44076 3.94493,-5.18282 1.28921,-1.71472 2.50939,-3.46677 3.71864,-5.22446 1.19869,-1.75208 2.36144,-3.52251 3.51703,-5.29621 1.16179,-1.78491 2.2714,-3.59475 3.38208,-5.40384 1.12363,-1.85062 2.21167,-3.71747 3.27861,-5.59317 1.10289,-1.96547 2.15287,-3.95289 3.18322,-5.94769 1.08441,-2.10148 2.11384,-4.22377 3.11869,-6.35472 1.042,-2.25655 2.09458,-4.5094 3.14053,-6.76458 1.07514,-2.3231 2.14757,-4.64693 3.19391,-6.97994 1.04004,-2.31566 2.08252,-4.6304 3.09326,-6.95585 1.0085,-2.32957 1.98834,-4.66836 2.95878,-7.01005 0.98467,-2.35425 1.93005,-4.72046 2.86168,-7.09085 0.97271,-2.44759 1.8962,-4.90949 2.81149,-7.37362 0.97306,-2.60468 1.91888,-5.21689 2.86066,-7.83019 1.00214,-2.76475 1.95232,-5.54338 2.87385,-8.3291 0.95313,-2.88414 1.82522,-5.78762 2.66733,-8.69746 0.88009,-3.01688 1.70235,-6.04589 2.50359,-9.07916 0.83456,-3.15867 1.62824,-6.32532 2.43652,-9.48909 0.84492,-3.25035 1.64257,-6.50963 2.41605,-9.77329 0.77491,-3.32746 1.51331,-6.66121 2.2744,-9.99106 0.77979,-3.35964 1.527,-6.72486 2.27617,-10.08973 0.74853,-3.34388 1.45133,-6.69523 2.15482,-10.04641 0.70416,-3.31387 1.3736,-6.63313 2.04384,-9.95225 0.66582,-3.25529 1.30518,-6.51456 1.94486,-9.77377 0.62899,-3.21059 1.27295,-6.41895 1.90079,-9.62972 0.61479,-3.18652 1.22323,-6.37399 1.83475,-9.56099 0.6179,-3.27125 1.27682,-6.5364 1.94496,-9.80013 0.70104,-3.40401 1.42695,-6.80407 2.15686,-10.20348 0.77351,-3.49558 1.52398,-6.99483 2.25764,-10.49687 0.75287,-3.58646 1.48263,-7.17656 2.237,-10.76278 0.78348,-3.5896 1.54901,-7.18203 2.30485,-10.77608 0.75509,-3.55289 1.48391,-7.10988 2.19577,-10.66947 0.69042,-3.45885 1.34645,-6.92275 2.01572,-10.3847 0.64932,-3.37835 1.29975,-6.75657 1.93815,-10.1365 0.64862,-3.46118 1.28368,-6.92422 1.89425,-10.39063 0.6123,-3.52008 1.19478,-7.04403 1.7792,-10.56768 0.57499,-3.49209 1.13283,-6.98629 1.69928,-10.47944 0.54587,-3.3577 1.07605,-6.71729 1.59831,-10.07782 0.49831,-3.20961 0.97888,-6.42126 1.45233,-9.63369 0.45213,-3.10723 0.89825,-6.21509 1.35165,-9.32217 0.44607,-3.035 0.87266,-6.0721 1.28957,-9.11021 0.40803,-2.98848 0.79162,-5.97942 1.17049,-8.97078 0.36457,-2.88282 0.7144,-5.76703 1.05852,-8.65175 0.2218,-1.87825 0.11163,-0.94052 0.33054,-2.81319 0,0 22.44017,-9.68112 22.44017,-9.68112 l 0,0 c -0.22014,1.87655 -0.10933,0.93688 -0.3324,2.81903 -0.3461,2.89074 -0.69803,5.78096 -1.06475,8.66979 -0.38101,2.99779 -0.76827,5.99498 -1.17037,8.9907 -0.41332,3.04488 -0.83851,6.08856 -1.28686,9.12971 -0.45698,3.10905 -0.91099,6.21838 -1.35994,9.32831 -0.47653,3.21942 -0.96029,6.43805 -1.46209,9.65458 -0.52584,3.36715 -1.05959,6.73337 -1.61039,10.09751 -0.57163,3.49571 -1.1391,6.9919 -1.70495,10.48831 -0.58591,3.52768 -1.16916,7.05573 -1.76876,10.58168 -0.60332,3.4716 -1.22803,6.94025 -1.87125,10.40646 -0.62991,3.38495 -1.27894,6.76719 -1.9348,10.14842 -0.67512,3.46653 -1.33618,6.93513 -2.02357,10.39984 -0.71226,3.56686 -1.43499,7.13218 -2.19505,10.69163 -0.76006,3.59344 -1.50036,7.19008 -2.30164,10.77688 -0.76513,3.5822 -1.49136,7.17048 -2.23644,10.75584 -0.72821,3.50369 -1.45309,7.00796 -2.23942,10.50229 -0.73096,3.39081 -1.4485,6.78379 -2.1492,10.17942 -0.66735,3.25474 -1.33126,6.51016 -1.94095,9.77349 -0.61648,3.18784 -1.22023,6.37754 -1.83369,9.56581 -0.62615,3.21305 -1.26921,6.42354 -1.90218,9.63558 -0.65019,3.26181 -1.27494,6.52745 -1.94958,9.78558 -0.67559,3.32318 -1.33539,6.64881 -2.04143,9.96727 -0.70869,3.3569 -1.39987,6.71666 -2.14899,10.06703 -0.74523,3.36904 -1.49167,6.73796 -2.26754,10.10181 -0.76873,3.32948 -1.50236,6.66493 -2.26306,9.99579 -0.75952,3.27498 -1.54823,6.54491 -2.38832,9.80508 -0.81236,3.16343 -1.5932,6.33291 -2.41538,9.49445 -0.79813,3.04157 -1.5855,6.08552 -2.4688,9.10961 -0.82782,2.92958 -1.68175,5.85386 -2.6201,8.75846 -0.90638,2.80025 -1.84315,5.593 -2.82789,8.37329 -0.94041,2.61329 -1.86227,5.23169 -2.83455,7.83626 -0.90609,2.4728 -1.81128,4.94626 -2.77817,7.40176 -0.92613,2.37996 -1.85112,4.76047 -2.83981,7.12156 -0.96433,2.35057 -1.93911,4.69809 -2.94443,7.03569 -0.99284,2.34026 -2.0295,4.66574 -3.08023,6.98682 -1.05078,2.33463 -2.08727,4.67401 -3.18324,6.9931 -1.02715,2.26169 -2.10021,4.50726 -3.11834,6.77205 -0.99716,2.14611 -1.99882,4.29076 -3.0699,6.41011 -1.01654,2.01501 -2.05751,4.02072 -3.13782,6.01064 -1.03981,1.90195 -2.1297,3.78259 -3.23574,5.65609 -1.09345,1.82948 -2.21494,3.64648 -3.3523,5.45566 -1.14459,1.79103 -2.31178,3.57103 -3.49275,5.34416 -1.20253,1.77846 -2.40479,3.5579 -3.68397,5.29593 -1.29208,1.75403 -2.58022,3.51013 -3.92281,5.2356 -1.35702,1.75274 -2.72306,3.50072 -4.14117,5.21681 -1.40503,1.72421 -2.83913,3.43034 -4.35362,5.08387 -1.51801,1.66326 -3.05991,3.31068 -4.65573,4.91827 -1.58175,1.57265 -3.19186,3.12266 -4.87648,4.6133 -1.65835,1.45141 -3.36802,2.85766 -5.14826,4.19639 -1.77718,1.34245 -3.60788,2.63147 -5.51393,3.83421 -1.91122,1.19805 -3.84324,2.37148 -5.82363,3.48221 -8.9874,4.85871 -18.09826,9.606 -27.6121,13.64737 -2.02277,0.7931 -4.07702,1.52903 -6.20368,2.08832 -2.04802,0.53533 -4.12905,0.96517 -6.24596,1.24068 -2.12862,0.27522 -4.26541,0.5055 -6.41432,0.62217 -2.25115,0.11897 -4.50538,0.1882 -6.76106,0.13734 -2.3675,-0.0487 -4.73338,-0.14763 -7.09322,-0.32377 -2.47777,-0.19323 -4.95451,-0.41238 -7.40714,-0.78221 -2.57482,-0.39914 -5.12961,-0.89341 -7.6262,-1.57753 -2.5897,-0.70686 -5.15226,-1.48906 -7.65819,-2.3977 -2.5994,-0.93888 -5.1785,-1.92068 -7.7007,-3.00838 -2.59701,-1.114 -5.18105,-2.25386 -7.68355,-3.52261 -2.53163,-1.29581 -5.03355,-2.63561 -7.46506,-4.06984 -2.41062,-1.43163 -4.78901,-2.90583 -7.06118,-4.50089 -2.23459,-1.57919 -4.42461,-3.20833 -6.468613,-4.9739 -1.999381,-1.74157 -3.927593,-3.54477 -5.704229,-5.4617 -1.764298,-1.90307 -3.475066,-3.84444 -5.080559,-5.85141 -1.650954,-2.078 -3.253692,-4.18622 -4.705554,-6.37477 -1.505023,-2.2664 -2.941024,-4.56656 -4.245801,-6.92562 -1.34988,-2.46411 -2.655823,-4.94695 -3.804884,-7.48781 -1.170801,-2.61914 -2.268262,-5.26374 -3.167066,-7.96421 -0.888141,-2.7277 -1.65225,-5.48599 -2.2223,-8.27817 -0.574652,-2.82508 -1.059939,-5.66561 -1.320501,-8.52706 -0.250451,-2.95867 -0.393326,-5.92302 -0.427583,-8.88978 -0.0087,-3.05755 0.03475,-6.11606 0.267355,-9.16809 0.229544,-3.11813 0.491175,-6.23544 0.895942,-9.3407 0.396101,-3.11315 0.886203,-6.21721 1.514247,-9.30194 0.631722,-3.01506 1.335663,-6.02027 2.24969,-8.9817 0.884995,-2.82526 1.832455,-5.63689 2.908471,-8.41221 1.037526,-2.6593 2.139969,-5.29992 3.373872,-7.89589 1.177925,-2.48081 2.399299,-4.94602 3.740406,-7.36429 1.309148,-2.36895 2.66925,-4.71727 4.129148,-7.01928 1.454252,-2.27275 2.953304,-4.52458 4.555045,-6.72186 1.566598,-2.15189 3.194626,-4.27171 4.9282,-6.32533 1.654138,-1.95745 3.357734,-3.88304 5.174484,-5.72973 1.71865,-1.68933 3.4567,-3.36651 5.32187,-4.93614 1.732,-1.43608 3.48274,-2.85727 5.34016,-4.17171 1.72847,-1.22814 3.50012,-2.40779 5.3415,-3.50656 8.63488,-5.09356 17.9609,-9.23762 26.97237,-13.79034 1.76957,-0.83398 3.56078,-1.64241 5.451,-2.25367 1.60774,-0.52282 3.24926,-0.96446 4.92182,-1.30381 1.47283,-0.30766 2.94951,-0.6002 4.44433,-0.81738 1.27868,-0.18113 2.55805,-0.36621 3.85079,-0.45459 1.07919,-0.0933 2.16278,-0.18765 3.24855,-0.17014 0.82372,0.0173 1.6487,0.034 2.46889,0.1072 0.5518,0.082 1.11085,0.13637 1.64875,0.27757 0,0 -20.81799,12.59637 -20.81799,12.59637 z"
       inkscape:connector-curvature="0" />
    <path
       style="color:#000000;fill:#000050;fill-opacity:1;fill-rule:nonzero;stroke:#000050;stroke-width:0.59537482;stroke-linecap:butt;stroke-linejoin:miter;stroke-miterlimit:4;stroke-opacity:1;stroke-dasharray:none;stroke-dashoffset:0;marker:none;visibility:visible;display:inline;overflow:visible;enable-background:accumulate"
       id="path3029"
       d="m 352.82942,107.37055 c 0.0504,0.38481 0.08,0.7713 0.10925,1.15765 0.052,0.44638 0.11333,0.89187 0.16584,1.33822 0.0652,0.56352 0.1164,1.12816 0.16479,1.69293 0.0569,0.67451 0.10349,1.34963 0.14774,2.02484 0.0503,0.77565 0.0926,1.55165 0.133,2.32772 0.0448,0.86755 0.0832,1.73533 0.12009,2.60316 0.0392,0.94213 0.069,1.88447 0.12352,2.82606 0.0634,1.00062 0.12672,2.00124 0.18628,3.00205 0.0635,1.07144 0.11996,2.14318 0.17431,3.215 0.0636,1.13857 0.0797,2.27857 0.0999,3.41818 0.0203,1.19436 0.0376,2.38875 0.0544,3.58315 0.0199,1.24344 0.0275,2.48702 0.0542,3.73037 0.0376,1.27559 0.0848,2.55095 0.12756,3.82642 0.0462,1.36929 0.0859,2.73873 0.12503,4.10818 0.0408,1.43268 0.0783,2.86544 0.11461,4.29821 0.0376,1.47684 0.0715,2.95375 0.10315,4.43069 0.0332,1.54336 0.064,3.08674 0.094,4.63014 0.0303,1.56685 0.0584,3.13373 0.0856,4.70062 0.0275,1.58547 0.0529,3.17097 0.0777,4.75647 0.0249,1.6023 0.048,3.20463 0.0704,4.80697 0.0226,1.61758 0.0435,3.23518 0.0639,4.85278 0.0205,1.63144 0.0395,3.26289 0.0579,4.89434 0.0186,1.644 0.0358,3.28802 0.0525,4.93203 0.0149,1.63756 0.0933,3.27381 0.16804,4.9099 0.0863,1.63849 0.19404,3.27607 0.29456,4.91393 0.10215,1.65779 0.19678,3.31591 0.28773,4.97418 0.0931,1.70689 0.17792,3.41412 0.26105,5.1214 0.0852,1.7611 0.16184,3.52249 0.2359,5.28396 0.0776,1.82983 0.14711,3.65991 0.21382,5.49005 0.0697,1.94235 0.13257,3.88488 0.19259,5.82747 0.0634,2.03234 0.11996,4.06484 0.1754,6.09736 0.0576,2.11039 0.1085,4.2209 0.15873,6.33143 0.0516,2.20284 0.0982,4.40577 0.14342,6.60871 0.0582,2.29657 0.1352,4.59275 0.20599,6.88905 0.0636,2.3638 0.14427,4.72711 0.23749,7.09016 0.0884,2.39005 0.1928,4.77954 0.30784,7.16872 0.13271,2.46851 0.27971,4.93641 0.41733,7.40472 0.14379,2.55859 0.27344,5.11776 0.39875,7.67707 0.14156,2.6797 0.29396,5.35895 0.43779,8.03855 0.13785,2.73952 0.2882,5.47847 0.44827,8.21707 0.15211,2.73921 0.32116,5.47761 0.50019,8.21559 0.17703,2.70073 0.34502,5.40187 0.53483,8.10195 0.19527,2.67484 0.37189,5.35066 0.56561,8.02556 0.20472,2.68423 0.3917,5.36943 0.62048,8.0522 0.25428,2.75386 0.53618,5.50571 0.83584,8.2561 0.32297,2.88354 0.73073,5.7592 1.11302,8.63709 0.42377,3.0515 0.85896,6.10174 1.32769,9.14828 0.48041,3.21528 1.04301,6.42038 1.61208,9.62451 0.60091,3.34465 1.21339,6.6877 1.83119,10.03004 0.62032,3.41982 1.26152,6.83666 1.91864,10.25128 0.65504,3.45755 1.3078,6.91529 1.994,10.3683 0.69666,3.45681 1.4087,6.91126 2.11564,10.36649 0.69468,3.43195 1.42382,6.85862 2.16673,10.28293 0.75181,3.43489 1.52583,6.86607 2.32517,10.29285 0.80674,3.4044 1.65412,6.80146 2.51111,10.19656 0.8464,3.36484 1.6992,6.72846 2.54586,10.09324 0.84863,3.38316 1.73518,6.75894 2.62887,10.1333 0.88963,3.35899 1.8023,6.71301 2.77129,10.05542 0.98839,3.37071 2.03054,6.72926 3.08956,10.08367 1.03001,3.34495 2.13788,6.671 3.27672,9.98905 1.14662,3.29088 2.32078,6.57445 3.51439,9.85268 1.20427,3.28269 2.37471,6.57455 3.55398,9.86402 1.1835,3.30856 2.44811,6.59449 3.72746,9.87582 1.277,3.28062 2.56196,6.55895 3.86782,9.831 1.26293,3.182 2.56763,6.35135 3.92829,9.50282 1.33987,3.03289 2.72013,6.05241 4.14854,9.05468 1.37853,2.90535 2.82363,5.78634 4.2752,8.66459 1.38511,2.77737 2.86714,5.51619 4.39447,8.23632 1.46005,2.60509 3.04019,5.15697 4.65347,7.69233 1.53511,2.41749 3.1905,4.77466 4.88144,7.11168 1.60861,2.21583 3.31215,4.37779 5.04137,6.52347 1.66615,2.06154 3.42386,4.06509 5.21636,6.04451 1.71844,1.89007 3.49882,3.73618 5.31515,5.55561 1.73521,1.73452 3.54574,3.41009 5.38565,5.06066 1.73169,1.55183 3.53101,3.04415 5.37065,4.4987 1.75872,1.38451 3.57945,2.70739 5.4219,4.00656 1.74278,1.23984 3.56224,2.39148 5.41391,3.50441 1.77108,1.06102 3.6057,2.03858 5.45017,2.9995 1.71783,0.9003 3.49222,1.71152 5.29836,2.46857 1.58484,0.66328 3.21892,1.22829 4.87735,1.73534 1.46665,0.44562 2.97019,0.78585 4.48753,1.07146 0.23531,0.0394 0.47061,0.0788 0.70593,0.11834 0,0 -9.12381,5.5137 -9.12381,5.5137 l 0,0 c -0.23954,-0.0455 -0.47907,-0.091 -0.7186,-0.13657 -1.54078,-0.3228 -3.06722,-0.69716 -4.55549,-1.17354 -1.67747,-0.54085 -3.33038,-1.13773 -4.93458,-1.82791 -1.81924,-0.78563 -3.60606,-1.62551 -5.34166,-2.54388 -1.8583,-0.97738 -3.70512,-1.97318 -5.4864,-3.05447 -1.86504,-1.13436 -3.69435,-2.31152 -5.45265,-3.56894 -1.85271,-1.3151 -3.68365,-2.65381 -5.45132,-4.055 -1.8492,-1.4732 -3.65823,-2.98396 -5.39967,-4.55358 -1.84867,-1.66656 -3.66788,-3.35809 -5.41159,-5.10842 -1.82319,-1.83383 -3.6112,-3.69375 -5.33705,-5.5976 -1.80079,-1.99594 -3.56631,-4.01618 -5.24261,-6.09282 -1.73657,-2.16036 -3.44741,-4.33695 -5.062,-6.56806 -1.69878,-2.35379 -3.36336,-4.72701 -4.90533,-7.16161 -1.62014,-2.55068 -3.2087,-5.11716 -4.67468,-7.7379 -1.53304,-2.73237 -3.02099,-5.48336 -4.411,-8.27325 -1.45287,-2.88509 -2.90026,-5.77255 -4.28046,-8.68459 -1.43406,-3.01182 -2.81592,-6.04227 -4.16016,-9.08517 -1.36541,-3.15874 -2.67279,-6.33607 -3.93618,-9.52668 -1.30631,-3.2743 -2.59177,-6.55488 -3.86963,-9.83763 -1.28377,-3.28809 -2.55335,-6.58067 -3.74185,-9.89586 -1.17993,-3.28779 -2.34811,-6.57873 -3.55242,-9.85989 -1.1969,-3.2828 -2.37207,-6.57153 -3.52213,-9.86694 -1.14332,-3.32424 -2.25565,-6.65653 -3.28711,-10.00847 -1.06067,-3.36048 -2.10832,-6.72418 -3.10132,-10.1003 -0.97463,-3.34787 -1.89311,-6.70732 -2.78243,-10.07306 -0.89443,-3.37761 -1.78359,-6.75627 -2.63477,-10.14236 -0.8467,-3.36459 -1.70156,-6.72762 -2.54513,-10.0928 -0.85865,-3.3998 -1.70624,-6.80182 -2.51811,-10.2103 -0.80265,-3.43061 -1.57569,-6.86634 -2.33083,-10.30507 -0.74527,-3.42714 -1.48101,-6.85601 -2.17354,-10.29152 -0.70501,-3.45707 -1.41756,-6.91297 -2.11639,-10.37098 -0.68802,-3.45418 -1.34594,-6.9126 -1.99884,-10.3719 -0.6582,-3.41615 -1.3046,-6.83394 -1.9245,-10.25552 -0.61881,-3.34325 -1.23566,-6.68676 -1.84074,-10.03191 -0.57331,-3.20873 -1.14513,-6.41782 -1.62909,-9.63789 -0.47669,-3.05007 -0.91621,-6.10424 -1.3482,-9.15931 -0.38385,-2.8828 -0.79714,-5.76287 -1.13001,-8.65058 -0.30668,-2.75512 -0.58962,-5.51216 -0.85217,-8.27073 -0.2355,-2.68556 -0.4219,-5.37398 -0.6276,-8.06135 -0.19804,-2.67545 -0.36995,-5.35232 -0.56615,-8.02788 -0.19088,-2.70158 -0.36094,-5.40413 -0.53535,-8.10654 -0.17887,-2.73984 -0.35129,-5.47993 -0.5019,-8.22109 -0.16101,-2.73956 -0.31565,-5.47933 -0.45191,-8.21991 -0.14454,-2.67995 -0.29632,-5.35959 -0.4458,-8.03933 -0.1261,-2.55693 -0.25726,-5.11366 -0.40057,-7.66991 -0.1386,-2.46946 -0.28538,-4.93857 -0.42563,-7.40795 -0.11683,-2.39106 -0.22785,-4.78224 -0.31394,-7.1743 -0.0941,-2.36488 -0.18067,-4.72987 -0.24342,-7.09557 -0.0718,-2.29817 -0.14835,-4.59625 -0.2153,-6.89453 -0.0462,-2.20146 -0.0937,-4.40289 -0.14691,-6.60423 -0.0505,-2.10906 -0.10373,-4.21807 -0.16137,-6.32699 -0.0557,-2.03099 -0.11402,-4.06193 -0.17751,-6.09273 -0.0615,-1.9403 -0.12477,-3.88056 -0.19651,-5.82059 -0.0677,-1.82826 -0.13815,-3.65643 -0.21516,-5.4844 -0.0743,-1.75931 -0.15215,-3.5185 -0.23706,-5.27745 -0.0825,-1.70542 -0.16707,-3.41077 -0.26039,-5.11578 -0.0908,-1.65643 -0.1854,-3.3127 -0.28654,-4.96868 -0.1004,-1.6417 -0.20634,-3.28314 -0.30193,-4.92506 -0.0759,-1.64514 -0.1595,-3.29024 -0.183,-4.93675 -0.0168,-1.64365 -0.0341,-3.2873 -0.0527,-4.93092 -0.0185,-1.63104 -0.0375,-3.26207 -0.0581,-4.89309 -0.0204,-1.61714 -0.0414,-3.23428 -0.064,-4.8514 -0.0225,-1.60181 -0.0456,-3.20362 -0.0706,-4.8054 -0.0248,-1.58492 -0.0503,-3.16984 -0.0778,-4.75472 -0.0273,-1.56624 -0.0554,-3.13246 -0.0858,-4.69865 -0.03,-1.54246 -0.0608,-3.08491 -0.0949,-4.62731 -0.0333,-1.47556 -0.0678,-2.9511 -0.10518,-4.42659 -0.0364,-1.43166 -0.0739,-2.86329 -0.11508,-4.29485 -0.0396,-1.36742 -0.0811,-2.73481 -0.12792,-4.10206 -0.0437,-1.27716 -0.091,-2.55422 -0.13413,-3.83139 -0.0368,-1.24568 -0.0387,-2.49189 -0.061,-3.73781 -0.0175,-1.19317 -0.0355,-2.38633 -0.056,-3.57946 -0.0198,-1.13079 -0.0313,-2.26214 -0.0884,-3.39206 -0.0543,-1.06911 -0.11066,-2.13815 -0.17398,-3.20689 -0.0595,-0.99988 -0.12208,-1.99961 -0.18899,-2.99913 -0.0612,-0.94568 -0.10004,-1.89189 -0.13489,-2.83858 -0.037,-0.86479 -0.0757,-1.72953 -0.12047,-2.59405 -0.0403,-0.77204 -0.0825,-1.54401 -0.1322,-2.31564 -0.0436,-0.66954 -0.0893,-1.339 -0.14466,-2.0079 -0.0466,-0.55627 -0.0957,-1.11242 -0.15729,-1.66762 -0.0505,-0.44776 -0.10522,-0.89517 -0.17236,-1.34132 -0.053,-0.38297 -0.0661,-0.76884 -0.1064,-1.15296 0,0 9.89682,-4.48726 9.89682,-4.48726 z"
       inkscape:connector-curvature="0" />
    <path
       style="fill:#000050;fill-opacity:1;stroke:#000050;stroke-width:0.67861557px;stroke-linecap:butt;stroke-linejoin:miter;stroke-opacity:1"
       d="m 158.18868,322.92168 242.39248,-3.3727"
       id="path3064"
       inkscape:path-effect="#path-effect3066"
       inkscape:original-d="m 158.18868,322.92168 c 79.7803,11.54397 162.3503,-3.3727 242.39248,-3.3727"
       inkscape:connector-curvature="0" />
    <path
       sodipodi:type="arc"
       style="color:#000000;fill:#000050;fill-opacity:1;fill-rule:evenodd;stroke:#000050;stroke-width:1px;stroke-linecap:butt;stroke-linejoin:miter;stroke-miterlimit:4;stroke-opacity:1;stroke-dasharray:none;stroke-dashoffset:0;marker:none;visibility:visible;display:inline;overflow:visible;enable-background:accumulate"
       id="path3838"
       sodipodi:cx="613.31458"
       sodipodi:cy="282.41339"
       sodipodi:rx="72.214485"
       sodipodi:ry="6.1026325"
       d="m 685.52906,282.41339 a 72.214485,6.1026325 0 1 1 -144.42897,0 72.214485,6.1026325 0 1 1 144.42897,0 z"
       transform="matrix(0.46016426,0,0,0.90358206,162.19743,62.358665)" />
    <path
       style="color:#000000;fill:#000050;fill-opacity:1;fill-rule:nonzero;stroke:#000050;stroke-width:0.09116907;stroke-linecap:butt;stroke-linejoin:miter;stroke-miterlimit:4;stroke-opacity:1;stroke-dasharray:none;stroke-dashoffset:0;marker:none;visibility:visible;display:inline;overflow:visible;enable-background:accumulate"
       d="m 411.42486,315.12436 c -0.0585,-0.61186 -0.10053,-1.2574 -0.0934,-1.43455 0.0252,-0.62796 -0.58615,-1.92229 -2.11791,-4.48379 -0.85302,-1.42647 -1.59295,-2.76291 -1.64429,-2.96987 l -0.0933,-0.37628 0.9073,0.10025 c 0.49901,0.0552 2.47149,0.32296 4.38329,0.59516 l 3.47598,0.4949 0.4541,0.5382 c 1.41679,1.67925 4.30101,5.54326 4.20212,5.62964 -0.0639,0.0559 -0.81844,0.2483 -1.6768,0.42775 -2.44257,0.51067 -4.83568,1.25258 -6.29257,1.95083 -0.73472,0.35212 -1.34985,0.64022 -1.36697,0.64022 -0.0171,0 -0.079,-0.5006 -0.13748,-1.11246 z"
       id="path3852"
       inkscape:connector-curvature="0" />
    <path
       sodipodi:type="arc"
       style="color:#000000;fill:#000050;fill-opacity:1;fill-rule:evenodd;stroke:#000050;stroke-width:1px;stroke-linecap:butt;stroke-linejoin:miter;stroke-miterlimit:4;stroke-opacity:1;stroke-dasharray:none;stroke-dashoffset:0;marker:none;visibility:visible;display:inline;overflow:visible;enable-background:accumulate"
       id="path3862"
       sodipodi:cx="492.40616"
       sodipodi:cy="278.85352"
       sodipodi:rx="48.948196"
       sodipodi:ry="8.8996725"
       d="m 541.35435,278.85352 a 48.948196,8.8996725 0 1 1 -97.89639,0 48.948196,8.8996725 0 1 1 97.89639,0 z"
       transform="matrix(0.4020482,-0.23347476,0.23863074,0.53348679,176.8597,291.25549)" />
    <path
       sodipodi:type="arc"
       style="color:#000000;fill:#000050;fill-opacity:1;fill-rule:evenodd;stroke:#000050;stroke-width:1px;stroke-linecap:butt;stroke-linejoin:miter;stroke-miterlimit:4;stroke-opacity:1;stroke-dasharray:none;stroke-dashoffset:0;marker:none;visibility:visible;display:inline;overflow:visible;enable-background:accumulate"
       id="path3862-2"
       sodipodi:cx="492.40616"
       sodipodi:cy="278.85352"
       sodipodi:rx="48.948196"
       sodipodi:ry="8.8996725"
       d="m 541.35435,278.85352 a 48.948196,8.8996725 0 1 1 -97.89639,0 48.948196,8.8996725 0 1 1 97.89639,0 z"
       transform="matrix(-0.35912787,-0.2115211,0.2269427,-0.45396103,560.24168,541.57112)" />
  </g>
</svg>
